<?xml version="1.0" standalone="no"?>
<!DOCTYPE svg PUBLIC "-//W3C//DTD SVG 20010904//EN"
 "http://www.w3.org/TR/2001/REC-SVG-20010904/DTD/svg10.dtd">
<svg version="1.0" xmlns="http://www.w3.org/2000/svg"
 width="999.000000pt" height="999.000000pt" viewBox="0 0 999.000000 999.000000"
 preserveAspectRatio="xMidYMid meet">
<metadata>
Created by potrace 1.14, written by Peter Selinger 2001-2017
</metadata>
<g transform="translate(0.000000,999.000000) scale(0.100000,-0.100000)"
fill="#000000" stroke="none">
<path d="M4965 8976 c-71 -32 -111 -108 -90 -170 17 -50 41 -75 92 -98 38 -17
48 -17 85 -6 64 19 112 78 110 137 -1 42 -38 108 -70 125 -44 23 -94 27 -127
12z"/>
<path d="M4377 8808 c-8 -13 -23 -45 -32 -73 -10 -27 -22 -54 -27 -59 -4 -6
-8 -20 -8 -31 0 -12 -3 -25 -7 -29 -4 -3 -8 -12 -9 -19 -1 -7 -9 -39 -18 -72
-18 -72 -31 -140 -40 -212 -3 -18 -7 -37 -10 -42 -3 -5 -57 -9 -119 -9 -61 0
-143 -2 -182 -6 -140 -11 -200 -18 -204 -22 -5 -5 -2 -168 4 -204 2 -14 6 -40
9 -57 19 -129 39 -195 102 -340 16 -35 25 -63 21 -63 -1 0 -18 5 -37 10 -146
43 -321 61 -623 64 -178 2 -235 -4 -194 -20 9 -3 17 -12 17 -20 0 -8 3 -14 8
-14 4 0 18 -17 32 -37 25 -37 188 -205 245 -253 63 -53 172 -129 225 -157 30
-17 66 -36 80 -44 14 -7 27 -14 30 -14 3 0 27 -11 53 -23 48 -21 154 -55 212
-66 68 -14 83 -16 140 -23 72 -8 288 -8 365 0 77 8 108 14 250 51 8 2 29 7 45
11 17 4 35 11 40 14 6 4 28 13 50 20 43 13 47 15 148 60 80 36 77 36 119 13
74 -41 342 -130 443 -146 17 -3 41 -7 55 -10 14 -3 48 -8 75 -11 28 -3 64 -7
80 -10 56 -9 173 -5 290 10 28 3 59 7 70 9 11 1 29 5 40 9 11 3 32 8 47 11 32
5 90 24 133 42 17 7 37 14 45 16 40 9 218 105 291 158 85 60 232 198 304 285
22 26 46 53 53 61 6 7 12 15 12 18 0 3 9 15 20 26 12 12 19 24 16 28 -5 9
-428 7 -491 -2 -22 -3 -67 -8 -100 -12 -33 -3 -62 -7 -65 -9 -3 -2 -25 -6 -50
-10 -24 -4 -52 -11 -62 -16 -10 -5 -18 -7 -18 -5 0 3 -19 -2 -42 -10 -54 -19
-63 -5 -32 51 20 35 52 117 69 175 17 60 35 130 39 160 15 87 23 169 22 220
-1 67 17 62 -268 63 l-206 1 -8 35 c-15 75 -87 327 -104 366 -9 22 -22 57 -25
65 0 3 -11 27 -23 54 -12 27 -22 53 -22 58 0 5 -10 6 -22 3 -72 -21 -97 -29
-133 -44 -21 -9 -41 -15 -42 -14 -3 2 -152 -67 -310 -144 -51 -24 -103 -46
-115 -48 -12 -3 -49 8 -82 24 -34 16 -81 38 -106 49 -71 32 -245 102 -256 102
-5 0 -22 7 -38 15 -16 9 -37 17 -45 18 -13 3 -67 26 -103 44 -4 2 -14 -7 -21
-19z m148 -198 c6 -2 15 -4 20 -6 6 -2 65 -21 131 -43 102 -33 206 -74 223
-88 3 -2 -19 -24 -47 -49 -47 -42 -162 -198 -162 -220 0 -5 -6 -20 -13 -34
-18 -35 -46 -121 -53 -167 -3 -21 -8 -42 -11 -47 -5 -7 -13 -97 -15 -166 -3
-95 38 -254 87 -338 37 -64 118 -151 166 -179 50 -29 37 -33 -66 -19 -58 8
-154 43 -200 73 -119 77 -208 229 -233 398 -9 61 -9 353 0 415 14 93 18 116
28 161 6 26 13 53 14 60 10 52 34 127 69 216 16 42 23 50 36 43 9 -4 21 -9 26
-10z m1045 0 c0 -5 14 -32 30 -60 17 -29 44 -91 60 -138 28 -84 34 -107 46
-182 3 -19 7 -46 10 -60 9 -43 9 -232 0 -305 -4 -38 -8 -76 -9 -82 0 -7 -4
-13 -9 -13 -5 0 -7 -4 -4 -9 3 -5 -6 -44 -20 -87 -70 -216 -209 -365 -391
-419 -52 -15 -119 -22 -128 -13 -3 3 11 18 32 33 41 32 103 95 103 106 0 4 6
14 14 22 24 24 83 159 101 232 43 173 19 395 -61 573 -13 29 -24 55 -24 58 0
8 -44 69 -52 72 -5 2 -8 10 -8 17 0 7 -25 37 -55 66 -30 28 -53 55 -50 58 7
11 153 80 170 80 3 1 19 8 35 16 17 9 30 13 30 10 0 -4 6 -3 13 2 6 4 17 9 22
10 6 1 26 7 45 12 47 12 100 13 100 1z m-499 -221 c44 -32 93 -79 137 -133 26
-31 100 -170 107 -201 3 -11 13 -54 23 -95 27 -105 23 -271 -7 -366 -29 -88
-71 -158 -130 -212 -48 -44 -154 -102 -187 -102 -32 0 -126 60 -179 115 -106
108 -148 238 -141 430 3 66 10 136 16 155 6 19 13 42 15 50 6 29 43 116 65
156 61 109 177 226 231 233 3 1 26 -13 50 -30z m1060 -262 c7 -10 3 -189 -6
-233 -8 -45 -17 -107 -18 -126 -1 -10 -4 -18 -7 -18 -3 0 -7 -11 -8 -26 -1
-14 -6 -33 -12 -43 -5 -10 -6 -21 -3 -25 3 -3 0 -6 -7 -6 -7 0 -10 -3 -7 -7 4
-3 2 -12 -4 -20 -6 -7 -9 -13 -6 -13 11 0 -56 -127 -98 -185 -94 -131 -213
-218 -356 -259 -99 -28 -188 -36 -284 -24 -92 11 -105 13 -137 23 -30 8 -38
24 -13 26 18 2 25 3 50 12 11 3 31 8 45 11 14 2 48 13 75 23 62 25 79 30 85
31 15 0 142 81 188 119 58 50 129 137 159 198 25 49 64 161 68 195 16 119 20
193 12 283 -2 26 -1 47 2 48 34 6 68 9 136 15 44 3 81 7 83 9 6 6 58 0 63 -8z
m-1947 -10 c19 -3 20 -14 21 -163 1 -103 6 -167 14 -181 6 -13 10 -23 7 -23
-11 0 57 -195 73 -210 4 -3 12 -17 20 -32 14 -28 92 -112 147 -158 77 -66 227
-127 364 -149 43 -7 44 -8 20 -18 -23 -9 -91 -24 -130 -28 -9 0 -20 -3 -25 -6
-11 -6 -197 -3 -235 3 -53 9 -116 31 -147 50 -18 11 -33 17 -33 13 0 -14 -99
51 -147 98 -54 52 -123 148 -162 225 -33 65 -83 212 -96 282 -12 66 -25 167
-30 227 l-5 72 42 3 c54 4 277 0 302 -5z m-679 -611 c50 -5 150 -23 150 -26 0
-1 11 -3 25 -5 27 -3 66 -10 115 -21 17 -4 39 -8 50 -10 11 -1 22 -3 25 -4 3
-1 10 -3 15 -4 53 -9 83 -25 129 -71 51 -49 176 -145 190 -145 4 0 16 -9 28
-20 12 -11 29 -20 38 -20 9 0 20 -4 25 -9 14 -13 99 -41 170 -56 33 -7 111
-13 173 -12 62 0 115 -3 118 -5 4 -5 -31 -14 -91 -24 -11 -2 -33 -6 -50 -9
-79 -17 -319 -22 -415 -10 -82 11 -101 14 -165 29 -8 2 -79 23 -105 31 -114
36 -408 181 -418 207 -2 4 -8 8 -14 8 -11 0 -81 51 -86 63 -2 4 -7 7 -12 7
-13 0 -100 86 -100 98 0 19 68 22 205 8z m3224 -8 c15 -4 -92 -96 -225 -193
-83 -60 -245 -143 -339 -174 -38 -12 -77 -25 -85 -28 -8 -4 -22 -8 -30 -9 -8
-1 -25 -5 -37 -8 -46 -12 -78 -18 -178 -33 -22 -3 -107 -6 -190 -6 -133 0
-190 4 -260 18 -140 28 -140 40 3 42 122 2 158 6 243 27 142 37 272 121 387
249 18 20 36 37 40 38 4 0 14 2 22 4 102 23 265 55 300 60 25 3 63 8 85 11 22
2 83 7 135 10 52 3 97 8 99 10 3 2 7 0 10 -4 3 -5 12 -11 20 -14z"/>
<path d="M4011 8639 c-30 -12 -91 -78 -92 -99 0 -8 -2 -22 -4 -31 -6 -31 33
-97 71 -123 93 -63 212 -1 220 112 6 104 -99 180 -195 141z"/>
<path d="M5968 8620 c-37 -11 -78 -44 -100 -81 -37 -60 -15 -135 53 -181 43
-31 83 -35 132 -14 41 17 63 42 81 92 12 36 12 45 -4 86 -19 51 -53 93 -68 84
-5 -3 -18 1 -28 9 -21 16 -28 17 -66 5z"/>
<path d="M6455 7993 c-25 -7 -75 -41 -97 -68 -45 -54 -27 -141 39 -191 37 -28
50 -32 88 -29 24 2 57 11 73 20 63 37 83 133 43 198 -28 46 -101 81 -146 70z"/>
<path d="M3485 7966 c-64 -29 -95 -76 -95 -145 0 -49 57 -114 114 -129 56 -16
130 16 156 67 20 41 28 90 17 109 -5 6 -5 12 -2 12 4 0 -3 14 -15 30 -40 56
-119 81 -175 56z"/>
<path d="M4915 6912 c-1 -2 -70 -5 -151 -7 -175 -5 -317 -12 -394 -21 -30 -3
-71 -8 -90 -9 -19 -2 -35 -4 -35 -5 0 -1 -16 -3 -35 -5 -19 -2 -53 -7 -75 -10
-22 -4 -53 -9 -70 -11 -90 -10 -110 -13 -110 -14 0 -1 -9 -3 -20 -5 -11 -2
-36 -7 -55 -10 -19 -4 -46 -9 -60 -11 -14 -2 -36 -7 -50 -10 -14 -3 -36 -8
-49 -10 -49 -10 -149 -33 -226 -54 -44 -12 -96 -25 -115 -30 -193 -49 -572
-209 -692 -292 -14 -10 -31 -18 -37 -18 -6 0 -11 -4 -11 -10 0 -5 -7 -10 -15
-10 -8 0 -15 -4 -15 -9 0 -5 -9 -13 -20 -16 -11 -3 -20 -11 -20 -16 0 -5 16
-3 35 5 19 8 35 12 35 9 0 -3 6 -1 13 5 6 5 26 12 42 15 17 3 46 11 65 17 19
6 42 13 50 15 8 2 62 15 120 30 58 15 114 29 125 31 11 2 31 6 45 9 14 3 36 7
50 10 14 3 36 7 50 10 14 3 34 7 45 9 11 2 54 11 95 20 81 16 145 26 200 31
19 2 37 4 40 5 7 3 18 5 90 14 36 5 72 10 80 11 13 2 76 10 170 20 86 10 156
16 221 20 166 12 248 16 325 19 45 2 85 5 90 8 12 6 865 1 974 -6 238 -15 363
-24 435 -32 28 -3 64 -7 80 -8 59 -6 170 -20 245 -31 25 -4 56 -8 70 -10 39
-5 112 -16 145 -21 17 -3 44 -7 60 -10 30 -4 57 -9 105 -19 14 -3 39 -7 55 -9
17 -3 53 -10 80 -16 28 -6 61 -14 75 -16 14 -2 36 -7 50 -11 14 -3 30 -7 35
-9 6 -1 25 -5 44 -9 19 -3 37 -8 41 -10 4 -2 20 -7 36 -10 16 -3 54 -12 84
-20 30 -9 60 -17 65 -18 6 -2 16 -6 23 -10 6 -5 12 -6 12 -3 0 3 25 -4 55 -14
30 -10 55 -16 55 -13 0 3 6 1 13 -4 6 -6 21 -13 32 -16 32 -11 -30 37 -120 92
-74 46 -256 140 -280 146 -9 2 -39 14 -120 50 -26 12 -55 22 -90 32 -5 1 -50
16 -100 33 -87 30 -364 103 -435 115 -19 3 -42 8 -50 10 -8 2 -31 7 -50 10
-19 3 -42 8 -50 10 -8 2 -37 7 -64 10 -27 3 -51 7 -55 9 -3 2 -31 7 -61 10
-30 3 -68 8 -85 11 -72 11 -201 25 -275 30 -25 1 -88 6 -140 10 -52 4 -142 9
-200 10 -58 2 -105 4 -105 5 0 3 -227 5 -230 2z"/>
<path d="M2933 6183 c2 -5 51 -90 107 -191 134 -238 161 -339 116 -433 -34
-72 -164 -132 -336 -154 -39 -6 -277 -21 -353 -24 l-28 -1 5 -117 c7 -148 17
-250 31 -348 4 -22 8 -52 11 -67 118 -776 513 -1638 1038 -2268 115 -139 133
-157 316 -340 313 -314 600 -534 1014 -779 l138 -82 57 32 c31 18 70 40 86 49
214 121 568 370 736 517 17 15 55 48 83 72 98 86 392 387 475 486 344 413 606
850 799 1330 48 121 138 379 157 455 3 8 18 67 35 130 73 282 112 529 125 813
l6 117 -48 1 c-147 3 -332 19 -411 35 -178 37 -264 99 -275 199 -10 97 20 179
160 425 11 19 35 61 52 93 l33 57 -2067 0 c-1136 0 -2064 -3 -2062 -7z m3846
-231 c-172 -316 -108 -539 183 -636 92 -31 257 -54 402 -55 l49 -1 -7 -112
c-3 -62 -8 -124 -10 -138 -3 -14 -7 -44 -10 -68 -9 -71 -37 -223 -53 -292 -8
-36 -16 -72 -18 -81 -13 -63 -75 -279 -116 -402 -87 -259 -212 -546 -340 -777
-23 -41 -47 -85 -54 -98 -89 -164 -313 -479 -483 -681 -96 -113 -331 -356
-428 -441 -189 -167 -331 -278 -509 -399 -119 -81 -379 -241 -391 -241 -16 0
-405 246 -479 302 -5 5 -53 40 -105 79 -415 312 -810 734 -1085 1159 -38 58
-76 116 -85 130 -36 54 -184 325 -220 404 -15 33 -44 96 -64 138 -95 208 -238
622 -271 786 -2 9 -11 49 -20 87 -20 84 -22 93 -29 136 -3 19 -8 48 -12 64 -6
33 -8 46 -19 120 -3 28 -8 61 -11 75 -2 14 -7 76 -10 138 l-7 112 39 1 c273 5
481 60 591 154 91 78 121 213 81 360 -17 60 -100 234 -130 273 -8 9 360 12
1835 12 l1845 0 -59 -108z"/>
<path d="M3340 5972 c-7 -3 -7 -8 -2 -15 16 -19 60 -151 67 -198 20 -133 11
-212 -35 -306 -73 -147 -247 -241 -517 -279 -73 -10 -85 -11 -126 -13 l-39 -1
6 -57 c9 -83 16 -134 21 -163 3 -14 7 -41 10 -60 63 -394 213 -862 403 -1250
80 -163 192 -362 280 -495 37 -57 165 -239 172 -245 3 -3 37 -45 75 -95 183
-237 486 -540 726 -727 183 -143 294 -220 475 -333 l137 -84 46 26 c105 61
268 167 386 252 434 311 821 710 1114 1146 98 147 135 205 166 260 61 108 88
159 146 275 234 469 398 1020 444 1491 l5 56 -73 7 c-490 45 -708 248 -641
596 13 67 50 178 65 194 5 6 9 12 9 15 0 6 -3303 8 -3320 3z"/>
<path d="M751 6142 c2 -23 8 -42 13 -42 7 0 8 -3 1 -8 -11 -8 -16 -52 -6 -52
3 0 7 -15 8 -32 4 -51 6 -58 15 -58 5 0 6 -4 3 -10 -3 -5 5 -25 19 -43 15 -19
26 -36 26 -40 0 -7 74 -83 77 -79 6 5 26 2 20 -4 -8 -8 84 -55 95 -48 4 3 8 0
8 -6 0 -7 7 -10 15 -6 8 3 15 1 15 -4 0 -6 11 -10 25 -10 14 0 25 -4 25 -8 0
-4 8 -9 18 -10 31 -3 47 -7 60 -15 6 -5 12 -5 12 -1 0 3 6 2 13 -4 12 -10 54
-22 85 -24 6 -1 12 -5 12 -10 0 -4 3 -7 8 -6 4 1 23 -4 42 -11 19 -8 37 -14
40 -15 3 -1 11 -5 18 -9 6 -5 12 -5 12 -2 0 3 10 -1 22 -9 12 -9 28 -16 36
-16 7 0 18 -5 25 -10 29 -25 86 -58 90 -53 3 3 12 -4 19 -16 7 -12 17 -21 23
-21 18 0 185 -180 185 -199 0 -5 3 -11 8 -13 16 -7 139 -254 147 -298 2 -11 7
-26 12 -33 8 -12 12 -28 15 -59 1 -10 6 -18 10 -18 4 0 8 -18 8 -39 0 -22 4
-42 9 -45 4 -3 8 -25 9 -48 0 -24 2 -55 5 -69 9 -46 -6 -52 -51 -19 -23 17
-42 27 -42 23 0 -5 -4 -3 -8 3 -12 18 -122 75 -132 69 -6 -3 -10 -1 -10 5 0 6
-4 8 -10 5 -5 -3 -10 -1 -10 6 0 6 -8 9 -20 6 -11 -3 -20 -1 -20 5 0 5 -4 7
-9 4 -5 -4 -11 -1 -13 4 -2 6 -17 12 -33 14 -17 2 -30 5 -30 6 0 2 -21 6 -55
11 -14 2 -28 9 -32 14 -5 6 -8 5 -8 -4 0 -11 -3 -11 -15 -1 -8 7 -26 10 -40 8
-14 -3 -25 -2 -25 1 0 11 -273 2 -295 -10 -5 -3 -22 -5 -37 -4 -16 0 -28 -2
-28 -5 0 -4 -6 -7 -12 -8 -23 -1 -142 -32 -163 -41 -25 -11 -107 -51 -143 -70
-33 -16 -133 -81 -148 -96 -6 -5 -22 -17 -34 -25 -28 -19 -88 -69 -117 -97
-13 -12 -23 -20 -23 -17 0 3 -6 -1 -13 -8 -17 -16 -87 -75 -147 -122 -24 -19
-48 -32 -52 -30 -4 3 -8 1 -8 -4 0 -10 -51 -37 -64 -33 -5 1 -12 -2 -15 -6 -9
-12 -102 -42 -95 -31 4 6 -2 5 -13 -1 -11 -6 -23 -7 -27 -4 -12 12 -36 12 -36
-1 0 -6 23 -22 50 -35 28 -13 50 -27 50 -32 0 -5 7 -6 15 -3 8 4 15 2 15 -3 0
-5 12 -10 26 -11 15 -1 33 -7 40 -12 8 -7 14 -7 18 -1 4 6 18 6 36 1 17 -5 30
-5 30 -1 0 4 15 8 33 9 18 1 46 8 63 17 16 8 32 15 37 15 4 0 26 14 50 30 23
17 53 38 66 48 14 9 48 40 76 67 28 28 74 71 102 97 28 26 48 49 45 52 -3 3 1
6 9 6 14 0 64 38 116 88 13 12 28 22 33 22 13 0 70 34 70 43 0 4 6 7 14 7 8 0
21 6 28 13 23 22 202 75 275 82 23 2 47 6 53 10 5 3 10 1 10 -6 0 -8 4 -8 13
-2 14 11 146 11 165 -1 6 -4 12 -3 12 3 0 7 8 7 27 0 14 -5 32 -8 40 -5 7 3
13 0 13 -7 0 -8 4 -6 10 3 5 8 10 10 10 4 0 -6 10 -10 23 -9 12 1 28 -3 36 -9
12 -9 13 -8 6 4 -7 12 -6 13 6 3 8 -6 34 -14 57 -16 24 -3 50 -11 59 -19 14
-11 16 -11 8 2 -7 12 -6 13 7 3 8 -7 19 -9 23 -5 5 4 5 1 1 -5 -5 -9 2 -13 23
-13 17 0 31 -5 31 -10 0 -6 3 -9 8 -8 4 1 24 -6 46 -15 21 -9 48 -17 60 -16
11 0 15 3 9 6 -7 2 -13 9 -13 14 0 6 4 8 9 5 12 -8 20 29 10 45 -4 7 -3 19 2
25 7 8 6 14 -1 19 -7 4 -8 11 -2 18 10 13 9 167 -1 183 -3 5 -8 30 -11 54 -9
72 -14 94 -42 166 -26 70 -33 88 -74 179 -22 50 -85 143 -134 200 -14 17 -26
34 -26 38 0 5 -4 5 -10 2 -5 -3 -10 -2 -10 3 0 5 -23 31 -51 58 -80 77 -87 83
-93 77 -3 -4 -6 -2 -6 4 0 11 -58 50 -72 49 -3 -1 -17 9 -30 21 -13 12 -30 23
-38 25 -8 2 -17 5 -20 8 -3 3 -30 16 -60 29 -30 13 -72 32 -93 42 -22 11 -43
16 -48 13 -5 -3 -9 0 -9 6 0 6 -4 9 -9 5 -5 -3 -12 -1 -16 5 -3 5 -15 10 -26
10 -10 0 -19 5 -19 10 0 6 -3 9 -7 8 -13 -2 -103 26 -103 32 0 3 -10 6 -22 7
-11 1 -24 7 -28 13 -4 7 -10 11 -14 11 -23 -3 -36 0 -31 9 3 6 -3 10 -14 10
-12 0 -21 5 -21 10 0 6 -6 10 -13 10 -19 0 -147 126 -147 143 0 8 -7 20 -16
27 -13 12 -15 8 -13 -28z"/>
<path d="M9212 6151 c-11 -31 -114 -141 -132 -141 -6 0 -13 -7 -16 -15 -4 -8
-10 -12 -15 -9 -5 3 -9 0 -9 -6 0 -6 -4 -9 -9 -5 -5 3 -16 -2 -25 -10 -8 -8
-19 -14 -23 -13 -14 4 -53 -13 -53 -23 0 -6 -9 -7 -20 -4 -11 3 -20 2 -20 -4
0 -9 -56 -27 -72 -23 -5 1 -8 -2 -8 -8 0 -5 -11 -10 -25 -10 -14 0 -25 -4 -25
-10 0 -6 -3 -9 -7 -9 -5 1 -11 0 -15 -1 -5 -1 -11 -3 -15 -4 -5 -1 -23 -10
-40 -19 -18 -10 -35 -17 -38 -17 -3 0 -6 0 -7 -1 -2 0 -12 -2 -23 -4 -11 -2
-21 -9 -23 -14 -2 -6 -9 -11 -16 -11 -18 0 -66 -24 -66 -33 0 -5 -4 -6 -9 -2
-5 3 -17 -3 -27 -12 -10 -10 -20 -18 -23 -19 -13 -1 -71 -40 -71 -46 0 -5 -4
-8 -9 -8 -9 0 -76 -56 -110 -91 -76 -79 -121 -131 -121 -139 0 -5 -4 -10 -10
-10 -5 0 -10 -6 -10 -14 0 -8 -7 -16 -15 -20 -8 -3 -15 -12 -15 -19 0 -8 -9
-22 -20 -32 -10 -9 -18 -20 -17 -24 0 -3 -4 -16 -11 -27 -6 -12 -8 -24 -5 -28
3 -3 2 -6 -4 -6 -6 0 -13 -10 -17 -22 -3 -13 -5 -23 -4 -23 1 0 -5 -11 -12
-25 -8 -14 -15 -27 -15 -30 -1 -3 -7 -17 -13 -31 -17 -41 -36 -112 -35 -131 0
-10 -3 -18 -6 -18 -4 0 -7 -15 -6 -32 0 -18 -3 -38 -8 -45 -5 -7 -6 -17 -2
-23 3 -5 2 -10 -3 -10 -7 0 -7 -215 0 -288 2 -16 69 -7 79 10 4 6 12 7 18 4 6
-4 11 -3 11 2 0 7 46 26 93 38 4 1 9 3 12 4 13 7 89 22 95 19 3 -1 15 3 28 10
17 9 22 9 22 -1 0 -10 2 -10 9 1 5 8 16 11 30 6 13 -4 21 -2 21 5 0 8 6 8 21
-1 12 -6 19 -7 15 -1 -16 26 360 15 393 -12 12 -9 13 -8 7 4 -7 13 -6 13 6 0
7 -8 22 -15 33 -14 11 0 25 -2 30 -5 6 -3 13 -6 18 -7 4 -1 9 -3 12 -4 3 -1 8
-4 13 -5 39 -12 72 -29 72 -38 0 -6 3 -8 6 -4 4 3 13 -1 21 -9 8 -8 19 -12 24
-9 5 4 9 2 9 -3 0 -5 16 -17 36 -27 20 -9 44 -24 54 -33 56 -52 69 -62 78 -62
5 0 12 -7 16 -15 3 -8 12 -15 19 -15 7 0 20 -11 27 -25 7 -14 16 -25 20 -25 4
0 38 -30 77 -68 39 -37 85 -79 102 -92 18 -14 39 -31 46 -38 8 -6 17 -12 20
-12 4 0 19 -8 33 -19 28 -20 132 -54 140 -46 3 2 12 0 22 -5 10 -5 20 -7 23
-3 4 3 24 7 45 8 21 1 47 7 59 13 11 6 23 8 27 5 3 -3 6 0 6 7 0 7 3 10 7 7 3
-4 15 1 26 10 10 10 21 17 23 16 13 -5 44 12 40 23 -3 9 1 11 12 7 13 -5 14
-3 6 6 -8 9 -18 10 -30 4 -17 -8 -39 -10 -46 -3 -3 2 -34 10 -58 14 -8 2 -28
9 -45 16 -16 7 -33 13 -37 12 -5 -1 -8 2 -8 8 0 5 -6 10 -14 10 -7 0 -25 9
-40 21 -14 11 -26 17 -26 13 0 -4 -9 5 -21 20 -11 14 -24 26 -29 26 -8 0 -64
47 -112 93 -10 9 -21 17 -24 17 -4 0 -14 8 -23 18 -9 9 -41 36 -72 59 -31 23
-63 49 -72 58 -10 9 -17 14 -17 10 0 -6 -15 5 -51 38 -10 9 -24 17 -29 17 -6
0 -27 10 -48 23 -34 21 -91 49 -102 51 -3 1 -11 5 -18 9 -7 5 -24 11 -39 13
-15 3 -33 10 -40 15 -6 6 -20 9 -30 7 -10 -1 -24 1 -31 5 -12 8 -51 17 -84 20
-10 1 -18 4 -18 7 0 3 -17 6 -38 7 -20 1 -55 2 -77 3 -22 2 -50 6 -62 11 -12
4 -24 5 -27 0 -3 -4 -31 -8 -63 -10 -59 -2 -118 -8 -118 -11 0 -1 -17 -3 -39
-6 -21 -2 -46 -9 -54 -16 -13 -11 -14 -11 -8 0 6 11 4 11 -10 3 -32 -17 -78
-31 -104 -33 -8 -1 -18 -5 -21 -11 -4 -5 -15 -10 -25 -11 -26 -3 -74 -27 -74
-38 0 -5 -4 -7 -9 -4 -5 3 -20 -5 -35 -19 -14 -13 -26 -22 -26 -19 0 2 -18 -7
-40 -21 -21 -13 -41 -21 -43 -17 -7 14 10 168 21 186 3 6 7 24 9 41 2 16 6 37
10 45 3 8 8 24 10 35 2 11 8 24 13 29 6 6 10 15 10 22 0 6 8 29 17 50 9 22 16
42 15 47 -1 4 2 7 8 7 5 0 9 3 8 8 -1 4 3 18 9 32 6 14 11 29 11 34 0 5 4 12
9 15 5 3 28 38 51 78 23 39 60 91 81 115 22 23 44 48 49 53 17 19 62 55 68 54
3 0 15 10 26 23 11 13 24 22 29 21 5 -2 9 2 9 7 0 6 9 10 21 10 11 0 18 4 15
9 -5 8 46 37 52 29 2 -1 8 5 13 15 6 9 14 15 19 12 4 -3 21 0 37 7 15 6 31 11
36 10 4 -1 7 3 7 10 0 6 3 9 6 6 3 -4 24 2 47 12 23 10 45 16 49 14 4 -3 8 0
8 6 0 7 7 10 14 7 8 -3 29 1 45 9 29 14 71 26 99 27 6 0 12 4 12 9 0 4 3 7 8
7 19 -3 43 2 39 9 -3 4 9 8 26 9 18 2 33 7 35 13 2 5 10 10 18 10 16 0 83 40
105 63 48 49 90 106 94 127 1 3 7 25 14 50 14 49 22 200 10 200 -4 0 -12 -13
-17 -29z"/>
<path d="M2026 6043 c-10 -28 -29 -56 -55 -83 -21 -23 -56 -90 -51 -99 1 -2
-3 -7 -10 -11 -9 -6 -14 -19 -24 -75 -1 -5 -5 -16 -9 -22 -5 -8 -3 -13 3 -13
7 0 8 -6 1 -17 -5 -10 -5 -26 0 -40 5 -14 5 -23 -1 -23 -5 0 -3 -19 5 -41 8
-23 15 -48 15 -56 0 -7 7 -30 17 -51 9 -20 15 -40 15 -44 -1 -5 3 -8 9 -8 5 0
7 -4 4 -10 -3 -5 -1 -10 6 -10 7 0 9 -3 6 -7 -4 -3 0 -15 10 -25 9 -10 12 -18
8 -18 -4 0 -1 -8 8 -17 8 -10 16 -21 17 -25 8 -35 14 -48 22 -48 5 0 6 -4 3
-10 -3 -5 -2 -10 2 -10 9 0 45 -79 43 -94 -1 -5 3 -12 10 -16 6 -4 12 -17 13
-28 1 -12 4 -22 8 -22 8 0 24 -59 21 -72 -1 -5 3 -8 9 -8 6 0 9 -7 6 -15 -4
-8 -1 -17 4 -21 6 -3 9 -15 6 -25 -3 -10 -1 -21 3 -24 5 -3 7 -21 6 -40 -2
-19 0 -35 4 -35 10 0 7 -33 -4 -41 -4 -4 -3 -16 3 -28 8 -14 8 -21 1 -21 -5 0
-10 -20 -10 -45 0 -58 12 -57 28 3 6 26 14 55 17 65 3 9 7 26 10 37 3 11 8 30
11 43 11 40 14 236 3 242 -5 4 -7 10 -4 15 3 5 -1 25 -9 45 -8 19 -13 35 -11
35 2 0 -9 29 -25 65 -16 36 -27 65 -24 65 3 0 -2 7 -10 16 -9 8 -14 20 -11 25
4 5 1 9 -4 9 -6 0 -11 5 -11 11 0 6 -11 33 -25 60 -13 27 -22 49 -19 49 2 0
-2 14 -11 30 -9 17 -13 30 -9 30 4 0 2 6 -4 13 -6 7 -13 28 -15 47 -2 19 -7
42 -10 50 -6 17 -7 31 -8 115 -2 94 20 193 47 215 12 11 12 15 2 21 -19 13
-25 11 -32 -8z"/>
<path d="M7932 6044 c-11 -12 -10 -15 2 -20 17 -7 40 -69 31 -84 -3 -5 -1 -10
5 -10 7 0 10 -7 7 -15 -4 -8 -3 -16 1 -19 12 -7 4 -163 -11 -232 -20 -85 -82
-245 -99 -252 -4 -2 -8 -9 -8 -16 0 -7 -6 -26 -14 -42 -23 -46 -39 -88 -41
-104 -1 -9 -8 -27 -16 -40 -12 -23 -15 -37 -22 -100 -2 -14 -6 -31 -10 -37 -4
-6 -3 -14 2 -17 10 -7 9 -25 -2 -43 -5 -7 -5 -13 0 -13 4 0 8 -15 9 -32 1 -72
58 -287 72 -274 9 10 2 78 -10 93 -7 9 -7 13 0 13 7 0 8 10 2 29 -4 16 -6 32
-3 35 3 3 7 25 9 48 5 83 9 103 22 116 7 8 10 18 7 23 -3 4 2 20 11 34 9 14
13 25 9 25 -4 0 -1 7 6 17 8 9 13 17 11 17 -8 2 74 183 89 196 8 7 22 44 20
53 0 4 6 10 14 13 8 3 13 10 10 14 -3 5 -1 11 5 15 5 3 10 14 10 24 0 10 7 24
15 31 9 7 13 15 10 18 -3 3 0 11 6 19 6 7 9 13 5 13 -3 0 -1 12 5 26 9 25 18
70 24 122 1 12 -2 22 -8 22 -5 0 -4 7 3 15 10 12 10 15 -1 15 -11 0 -11 2 1
10 11 7 11 10 2 10 -7 0 -10 5 -7 10 3 6 3 16 -2 23 -4 6 -8 18 -9 25 -4 25
-48 108 -76 142 -16 19 -33 40 -38 47 -6 7 -10 16 -10 21 0 20 -25 30 -38 16z"/>
<path d="M1243 5473 c4 -6 -17 -11 -55 -12 -34 -1 -64 -3 -66 -6 -2 -2 1 -12
7 -22 6 -10 11 -14 11 -10 0 4 11 -2 25 -15 31 -29 42 -38 85 -68 19 -14 38
-29 42 -35 5 -7 8 -7 8 0 0 7 3 7 8 0 13 -18 92 -56 102 -50 5 3 10 3 10 -2 0
-9 48 -33 65 -33 17 0 135 -59 152 -76 8 -7 19 -14 24 -14 5 0 46 -36 90 -80
44 -44 78 -80 74 -80 -3 0 7 -12 22 -28 15 -15 37 -44 48 -65 11 -20 23 -37
27 -37 5 0 8 -9 8 -19 0 -10 7 -22 16 -25 9 -4 14 -9 11 -12 -8 -8 -47 6 -47
17 0 15 -43 59 -57 59 -8 0 -11 5 -8 10 3 6 -1 10 -9 10 -9 0 -16 4 -16 8 0 5
-12 15 -27 22 -16 8 -40 23 -55 33 -16 10 -28 15 -28 11 0 -3 -7 -1 -15 6 -8
7 -15 9 -15 4 0 -5 -4 -4 -8 2 -4 7 -23 13 -42 15 -19 2 -39 6 -45 10 -5 3
-17 7 -25 8 -8 1 -33 3 -55 5 -22 2 -40 4 -40 5 0 1 -47 4 -105 7 -58 3 -115
6 -127 7 -13 0 -23 4 -23 7 0 3 -10 7 -22 7 -48 3 -78 11 -95 24 -14 12 -16
12 -8 0 5 -9 -8 -4 -31 9 -21 14 -41 24 -44 24 -12 -2 -40 9 -40 16 0 4 -13
13 -28 19 -29 12 -115 96 -123 120 -3 7 -13 12 -24 10 -16 -4 -17 -6 -4 -19 9
-8 17 -19 18 -25 2 -5 8 -21 14 -35 6 -14 11 -27 12 -30 7 -29 20 -56 34 -71
9 -11 15 -22 13 -25 -2 -3 11 -18 27 -33 17 -16 27 -31 24 -35 -3 -3 -2 -6 4
-6 6 0 26 -11 46 -24 19 -13 38 -22 41 -18 3 3 6 1 6 -5 0 -9 67 -35 103 -39
9 -1 18 -2 20 -3 8 -7 83 -12 227 -15 91 -2 165 -5 165 -6 0 -1 16 -3 35 -5
33 -3 78 -10 125 -19 47 -8 155 -48 166 -62 6 -8 18 -14 25 -14 8 0 14 -4 14
-8 0 -4 14 -16 30 -26 17 -9 28 -22 25 -27 -4 -5 -1 -10 4 -10 6 -1 17 -2 24
-3 20 -3 27 17 12 34 -8 9 -16 26 -18 38 -2 12 -6 25 -10 28 -4 4 -7 17 -7 29
0 11 -4 25 -8 31 -4 5 -23 45 -42 89 -44 102 -118 214 -190 287 -31 32 -54 60
-52 63 3 3 0 5 -6 5 -11 0 -36 19 -82 60 -9 8 -23 16 -31 18 -7 2 -16 7 -19
12 -3 5 -18 12 -33 15 -15 4 -27 12 -27 18 0 6 -3 7 -7 4 -3 -4 -11 -3 -17 2
-6 6 -23 12 -36 14 -14 2 -32 7 -40 10 -8 4 -37 8 -65 10 -27 1 -56 7 -64 11
-9 6 -12 5 -8 -1z"/>
<path d="M8655 5462 c-2 -3 -17 -6 -32 -7 -36 -4 -147 -45 -151 -56 -2 -5 -10
-9 -17 -9 -7 0 -27 -11 -43 -25 -17 -14 -33 -25 -37 -25 -4 0 -20 -13 -35 -30
-15 -16 -31 -30 -34 -30 -7 0 -55 -52 -91 -98 -11 -14 -28 -34 -37 -44 -10
-10 -16 -18 -13 -18 3 0 -9 -21 -27 -47 -18 -27 -33 -51 -33 -55 0 -4 -6 -13
-12 -19 -7 -7 -13 -17 -13 -22 0 -4 -11 -33 -26 -64 -14 -31 -28 -69 -31 -84
-3 -16 -8 -29 -12 -29 -6 0 -10 -17 -13 -57 -1 -7 -7 -14 -15 -17 -18 -7 -17
-22 2 -30 10 -3 32 10 58 34 23 22 48 40 54 40 7 0 13 3 13 8 0 8 74 42 93 42
7 0 18 5 24 11 6 6 27 11 47 12 20 1 36 4 36 8 0 5 9 6 20 4 11 -2 22 0 24 4
3 4 15 7 28 6 13 -1 31 2 42 7 14 8 17 7 11 -3 -6 -8 -4 -10 6 -3 7 4 88 9
179 10 91 1 185 8 210 14 25 6 53 11 62 11 10 0 20 5 23 10 4 5 11 7 16 4 5
-4 9 -1 9 6 0 7 3 9 6 6 4 -4 19 2 34 13 16 11 31 20 34 20 9 0 86 74 86 82 0
3 11 23 25 45 14 21 26 43 26 48 0 6 5 16 11 23 6 6 8 12 4 12 -3 0 5 20 19
44 20 37 22 45 10 50 -8 3 -15 1 -15 -5 0 -18 -92 -108 -138 -135 -61 -36
-174 -81 -195 -78 -9 1 -17 -1 -17 -6 0 -5 -11 -7 -25 -5 -14 1 -25 -1 -25 -4
0 -4 -8 -7 -17 -8 -21 -1 -228 -14 -263 -17 -14 -1 -31 -5 -37 -9 -8 -5 -13
-3 -13 4 0 7 -9 6 -25 -5 -14 -9 -30 -14 -35 -11 -5 3 -28 -2 -52 -10 -24 -9
-47 -17 -53 -19 -21 -6 -50 -20 -55 -25 -3 -4 -25 -19 -50 -35 -24 -16 -63
-49 -86 -73 -50 -52 -78 -58 -40 -8 15 19 23 35 19 35 -4 0 -3 4 2 8 6 4 22
23 35 42 53 76 214 243 224 233 3 -4 6 0 6 7 0 7 3 10 6 7 4 -4 19 3 35 14 31
22 98 53 115 54 6 0 19 6 28 14 9 7 16 11 16 7 0 -4 14 0 30 9 17 9 30 12 30
8 0 -5 4 -3 8 2 4 6 25 19 47 30 36 18 163 109 175 125 3 4 11 9 19 12 19 6
23 35 5 42 -8 3 -14 1 -14 -5 0 -6 -5 -7 -12 -3 -13 8 -166 13 -173 6z"/>
<path d="M1557 4623 c-3 -3 -32 -6 -64 -7 -32 -1 -64 -5 -70 -9 -8 -5 -13 -3
-13 5 0 9 -3 9 -10 -2 -5 -8 -10 -11 -10 -5 0 5 -5 4 -12 -3 -16 -16 -31 -15
-22 1 6 9 5 9 -7 0 -8 -6 -41 -19 -74 -28 -33 -9 -70 -23 -82 -31 -13 -8 -23
-12 -23 -9 0 4 -13 -3 -30 -15 -16 -12 -30 -18 -30 -13 0 4 -4 3 -8 -3 -4 -5
-24 -20 -44 -33 -21 -12 -38 -26 -38 -30 0 -4 -11 -14 -25 -21 -13 -7 -27 -22
-31 -32 -3 -10 -9 -16 -14 -13 -9 5 -90 -114 -90 -133 0 -7 -5 -12 -12 -12 -6
0 -8 -3 -5 -6 4 -4 -2 -19 -13 -34 -17 -24 -18 -29 -5 -34 8 -3 27 1 42 8 16
8 53 25 83 37 30 13 57 26 60 30 3 3 24 14 48 24 23 11 42 22 42 27 0 4 5 8
10 8 5 0 19 8 29 18 10 9 36 31 56 47 20 17 43 36 50 43 8 6 18 12 24 12 5 0
14 6 18 14 4 8 37 29 73 47 63 32 81 39 108 41 6 1 12 5 12 10 0 5 5 6 10 3 6
-4 19 -3 28 1 9 4 26 8 37 10 11 1 38 5 60 9 22 3 51 7 65 9 14 2 25 5 25 6 0
1 48 3 107 4 59 1 110 5 114 9 4 4 2 8 -4 8 -33 4 -52 7 -54 8 -4 4 -50 11
-88 16 -19 2 -35 4 -35 5 0 1 -37 3 -82 5 -45 2 -86 6 -91 9 -5 3 -12 3 -15
-1z"/>
<path d="M8255 4611 c2 -4 -11 -6 -28 -6 -18 1 -36 -1 -42 -4 -10 -5 -57 -11
-92 -11 -35 0 -28 -25 7 -26 18 -1 27 2 23 9 -4 6 -1 7 6 2 7 -4 45 -9 84 -11
88 -5 120 -9 132 -15 6 -3 24 -6 40 -7 31 -2 119 -20 145 -29 8 -3 20 -7 26
-8 25 -6 114 -50 114 -57 0 -5 7 -8 15 -8 7 0 18 -6 22 -12 4 -7 37 -35 73
-63 36 -27 71 -54 78 -60 7 -5 22 -18 33 -27 10 -10 22 -19 27 -19 12 -3 57
-23 62 -29 3 -3 34 -18 70 -33 36 -16 73 -33 84 -38 41 -23 39 8 -5 90 -23 45
-46 81 -51 81 -4 0 -8 4 -8 10 0 14 -87 96 -135 128 -22 15 -42 29 -45 32 -6
6 -63 32 -70 32 -3 0 -20 8 -37 19 -18 11 -37 18 -42 15 -5 -4 -12 -2 -16 4
-3 5 -17 10 -31 10 -13 0 -24 4 -24 8 0 4 -12 9 -27 10 -16 1 -39 5 -53 8 -33
9 -340 13 -335 5z"/>
<path d="M890 4052 c0 -5 10 -18 23 -29 12 -12 38 -40 57 -64 91 -112 178
-177 260 -194 19 -4 39 -10 45 -13 25 -15 211 -17 229 -3 7 6 17 6 26 1 8 -5
21 -5 29 0 9 4 30 10 46 13 26 5 100 27 145 44 8 4 21 5 28 4 6 -1 12 2 12 7
0 5 6 9 13 9 20 1 66 11 100 22 18 6 48 13 67 15 38 6 75 14 75 16 0 1 16 3
35 5 45 5 95 13 95 15 0 7 73 4 83 -3 7 -6 12 -6 12 1 0 12 104 4 108 -9 3 -6
9 -6 17 1 9 7 23 6 49 -5 20 -8 36 -13 36 -11 0 3 12 -1 27 -9 15 -8 30 -12
35 -9 4 3 8 0 8 -5 0 -6 6 -11 14 -11 8 0 16 -6 19 -12 3 -9 8 -10 15 -3 7 7
5 17 -8 33 -10 13 -20 22 -22 20 -2 -2 -21 8 -43 21 -22 14 -43 24 -47 23 -5
-1 -8 3 -8 9 0 5 -4 8 -9 5 -4 -3 -17 1 -27 9 -10 8 -27 15 -36 15 -10 0 -18
5 -18 10 0 6 -9 10 -19 10 -11 0 -23 5 -26 10 -3 6 -16 10 -29 10 -12 0 -26 3
-30 7 -4 4 -17 9 -29 10 -12 2 -38 6 -57 9 -46 8 -208 8 -240 0 -14 -4 -43 -9
-65 -11 -40 -4 -80 -12 -80 -15 0 -1 -7 -3 -15 -5 -8 -2 -24 -6 -35 -9 -90
-24 -141 -34 -147 -30 -5 3 -8 0 -8 -6 0 -6 -4 -9 -9 -5 -5 3 -12 1 -15 -4 -3
-5 -15 -7 -25 -4 -10 3 -28 0 -40 -6 -13 -8 -21 -8 -21 -2 0 7 -8 7 -22 2 -29
-11 -186 -11 -214 -1 -13 5 -26 4 -32 -2 -6 -6 -12 -6 -16 1 -4 5 -13 8 -21 4
-8 -3 -15 0 -15 7 0 7 -7 10 -15 6 -8 -3 -15 -1 -15 3 0 5 -8 8 -17 7 -10 -2
-25 1 -33 5 -8 5 -37 18 -65 30 -27 12 -60 31 -73 42 -23 21 -62 33 -62 19z"/>
<path d="M9044 4036 c-8 -11 -14 -16 -14 -11 0 6 -5 3 -10 -5 -5 -8 -13 -15
-17 -16 -4 0 -26 -9 -48 -19 -22 -10 -46 -18 -52 -18 -7 0 -13 -4 -13 -9 0 -5
-4 -7 -9 -4 -5 4 -22 1 -38 -5 -34 -14 -54 -18 -118 -22 -27 -1 -56 -6 -62
-10 -7 -5 -13 -5 -13 0 0 4 -35 9 -78 10 -80 2 -156 10 -182 20 -18 7 -40 13
-60 17 -50 8 -96 19 -105 25 -5 3 -14 6 -20 7 -5 1 -23 5 -40 9 -16 4 -46 9
-65 10 -19 2 -47 8 -63 14 -18 7 -27 7 -27 0 0 -6 -5 -7 -12 -3 -18 11 -141
13 -155 2 -7 -5 -14 -5 -18 2 -4 7 -12 7 -24 0 -10 -5 -21 -6 -25 -3 -3 3 -6
1 -6 -5 0 -6 -12 -10 -27 -8 -16 1 -34 -2 -41 -8 -8 -5 -24 -12 -35 -13 -12
-2 -24 -8 -25 -13 -2 -6 -8 -8 -12 -5 -5 3 -52 -17 -104 -45 -129 -67 -136
-72 -136 -93 0 -17 2 -17 28 -3 36 21 83 39 102 40 8 0 18 4 21 9 3 4 25 9 47
10 23 1 42 5 42 10 0 4 9 3 20 -3 11 -6 20 -7 20 -2 0 4 30 7 68 5 37 -1 82
-3 100 -4 17 0 32 -4 32 -8 0 -4 15 -7 33 -6 17 1 37 -1 42 -4 6 -3 17 -6 25
-8 8 -1 31 -5 50 -9 19 -5 40 -9 45 -10 6 -1 15 -3 20 -4 6 -2 15 -4 20 -5 6
-1 33 -8 60 -15 28 -8 52 -12 54 -11 2 2 7 -2 10 -7 4 -6 18 -12 31 -15 33 -5
141 -36 160 -46 8 -4 34 -7 58 -7 23 1 42 -3 42 -8 0 -5 6 -3 14 3 8 7 17 8
19 4 4 -7 102 -9 102 -3 0 2 47 9 78 13 9 0 17 5 17 9 0 4 3 7 8 6 4 -1 21 3
37 8 17 6 32 11 35 11 5 -1 42 27 72 56 10 9 21 17 26 17 4 0 23 19 42 41 19
22 50 56 68 76 17 20 32 40 32 44 0 5 4 8 9 7 9 -3 11 2 11 20 0 17 -31 8 -46
-12z"/>
<path d="M2114 3791 c-3 -3 -15 -6 -27 -7 -40 -4 -101 -13 -152 -23 -27 -5
-53 -7 -57 -4 -5 2 -8 0 -8 -5 0 -5 -19 -13 -42 -17 -44 -8 -54 -11 -63 -15
-3 -1 -8 -3 -12 -4 -5 -1 -15 -6 -23 -11 -8 -5 -22 -10 -31 -10 -9 -1 -25 -9
-34 -18 -9 -10 -20 -15 -25 -12 -5 3 -11 1 -15 -5 -4 -6 -11 -8 -16 -5 -5 4
-9 1 -9 -5 0 -6 -4 -9 -9 -5 -5 3 -12 1 -16 -5 -4 -6 -11 -8 -16 -5 -5 4 -9 3
-9 -2 0 -4 -18 -17 -40 -27 -22 -11 -40 -23 -40 -28 0 -4 -3 -7 -7 -6 -16 4
-87 -39 -173 -107 -37 -29 -253 -245 -246 -245 4 0 -5 -12 -19 -27 -14 -16
-32 -35 -40 -44 -8 -9 -15 -20 -15 -26 0 -5 -13 -23 -30 -39 -16 -16 -30 -35
-30 -41 0 -7 -4 -13 -10 -13 -5 0 -10 -5 -10 -12 0 -6 -9 -21 -19 -32 -11 -12
-21 -27 -23 -35 -2 -8 -15 -27 -31 -43 -15 -16 -27 -35 -27 -43 0 -8 -4 -15
-8 -15 -5 0 -15 -12 -23 -27 -27 -53 -126 -178 -170 -215 -63 -54 -139 -110
-139 -103 0 3 -10 -1 -22 -9 -12 -9 -37 -16 -55 -16 -38 0 -48 -29 -10 -31 12
0 31 -3 42 -5 11 -3 35 -6 53 -7 17 -1 32 -4 32 -7 0 -3 29 -6 65 -6 36 0 65
3 65 6 0 4 10 6 22 5 26 -2 120 32 129 47 3 5 9 9 13 9 20 -4 166 126 166 148
0 6 4 11 8 11 5 0 17 16 28 35 10 19 21 35 24 35 3 0 14 17 25 38 11 20 22 39
25 42 4 3 14 23 25 45 10 22 28 54 40 70 12 17 33 50 46 75 13 25 29 51 36 58
7 7 20 26 30 42 9 17 21 30 25 30 4 0 8 8 8 18 0 9 14 30 30 46 17 16 29 30
26 33 -3 4 29 38 76 80 7 6 37 36 67 67 30 31 60 56 66 56 6 0 22 11 34 24 13
14 36 30 52 36 16 7 29 16 29 19 0 4 16 13 35 21 19 8 35 18 35 24 0 5 3 7 6
4 3 -4 35 7 70 24 36 17 68 28 71 25 3 -3 12 1 20 9 8 8 19 12 24 9 5 -4 9 0
9 7 0 9 3 9 10 -2 6 -9 10 -11 10 -3 0 7 7 10 15 7 8 -4 15 -1 15 7 0 7 3 10
6 7 3 -3 26 2 52 11 26 9 59 16 75 16 15 -1 27 2 27 5 0 4 6 7 13 8 6 0 32 3
57 7 25 4 55 7 68 8 12 1 22 4 22 7 0 3 25 5 55 5 30 -1 55 2 55 6 0 4 8 6 18
4 9 -2 17 -4 17 -5 0 -1 12 -3 28 -4 15 -1 27 1 27 5 0 3 21 5 48 3 26 -1 47
-3 47 -4 0 -1 28 -3 63 -6 72 -5 81 7 20 25 -24 7 -51 17 -61 23 -11 5 -21 7
-24 4 -3 -3 -15 0 -26 6 -11 6 -37 13 -56 15 -20 2 -43 7 -51 10 -22 9 -42 9
-66 1 -12 -4 -25 -4 -28 0 -8 8 -234 11 -242 3z"/>
<path d="M7550 3790 c-7 -5 -19 -6 -27 -3 -7 3 -13 0 -13 -6 0 -6 -7 -8 -15
-5 -8 4 -23 0 -32 -7 -14 -12 -16 -12 -8 1 7 12 6 13 -7 3 -8 -7 -18 -10 -21
-6 -4 3 -7 1 -7 -6 0 -7 -4 -9 -10 -6 -5 3 -16 3 -22 -2 -7 -4 -15 -8 -18 -8
-29 -5 -90 -30 -90 -37 0 -6 23 -7 53 -3 87 11 221 11 229 0 5 -6 8 -5 8 3 0
8 5 10 13 5 6 -4 30 -8 52 -8 23 -1 47 -5 54 -10 10 -6 12 -4 6 5 -6 10 -4 11
6 4 8 -4 23 -9 34 -10 62 -7 121 -17 125 -23 3 -3 14 -7 25 -8 50 -5 89 -14
100 -23 7 -5 15 -7 18 -4 3 3 16 -1 28 -9 11 -9 28 -13 35 -10 8 3 21 0 29 -7
8 -7 15 -9 15 -5 0 4 6 2 13 -4 8 -6 17 -8 20 -4 4 3 7 1 7 -5 0 -7 6 -12 14
-12 7 0 35 -10 62 -22 27 -11 51 -20 53 -19 2 2 7 -1 10 -6 3 -4 22 -17 41
-27 37 -20 101 -67 159 -113 18 -16 40 -32 47 -36 8 -4 14 -15 14 -22 0 -8 3
-15 8 -15 9 0 92 -77 92 -85 0 -6 16 -27 42 -53 9 -9 18 -23 20 -31 2 -8 9
-21 16 -30 50 -60 65 -81 86 -123 13 -26 26 -44 30 -41 3 4 6 -3 6 -14 0 -11
9 -28 20 -38 11 -10 20 -27 20 -37 0 -11 5 -16 10 -13 6 3 10 -3 10 -14 0 -12
5 -21 11 -21 5 0 7 -4 4 -10 -3 -5 -1 -10 5 -10 6 0 8 -4 5 -10 -3 -5 -3 -10
2 -10 7 0 42 -53 43 -65 0 -3 10 -16 21 -29 12 -13 20 -26 18 -28 -6 -5 123
-131 156 -153 51 -34 138 -70 170 -70 11 -1 25 -3 30 -7 12 -7 123 -3 145 5
13 5 85 15 118 16 6 1 12 8 12 17 0 12 -7 15 -25 12 -14 -3 -25 -1 -25 3 0 5
-7 6 -15 3 -8 -4 -15 -2 -15 3 0 5 -16 15 -35 22 -19 7 -35 17 -35 22 0 5 -6
9 -14 9 -8 0 -53 38 -101 85 -48 47 -84 85 -81 85 4 0 2 6 -4 13 -37 44 -50
61 -50 67 0 4 -9 17 -20 30 -11 13 -20 29 -20 37 0 7 -4 13 -10 13 -5 0 -10 5
-10 10 0 6 -11 23 -24 37 -14 15 -23 30 -20 35 3 4 1 8 -3 8 -5 0 -19 18 -33
40 -14 22 -29 40 -34 40 -5 0 -7 3 -3 6 3 3 -7 20 -23 38 -17 17 -30 35 -30
39 0 5 -6 14 -12 21 -7 7 -24 27 -38 45 -14 18 -43 53 -66 77 -23 24 -39 46
-36 49 3 3 1 5 -5 5 -6 0 -33 23 -60 51 -26 28 -73 69 -103 92 -30 22 -60 46
-65 53 -6 6 -37 25 -70 42 -33 17 -73 40 -89 51 -17 11 -33 18 -38 15 -4 -3
-8 0 -8 5 0 6 -3 10 -7 9 -5 -1 -34 10 -66 25 -31 14 -60 26 -62 26 -3 0 -18
7 -35 16 -26 14 -115 39 -180 50 -14 3 -41 8 -60 12 -50 10 -70 13 -110 17
-19 2 -42 6 -50 9 -25 9 -134 5 -147 -6 -8 -5 -13 -6 -13 0 0 10 -65 11 -75 1
-4 -3 -19 -3 -34 2 -16 4 -34 4 -41 0z"/>
<path d="M2230 3610 c-19 -5 -38 -6 -42 -4 -3 2 -9 0 -13 -6 -4 -6 -11 -8 -16
-5 -5 4 -9 2 -9 -2 0 -5 -8 -9 -17 -10 -27 -2 -46 -8 -70 -21 -13 -7 -23 -10
-23 -6 0 3 -6 1 -13 -5 -8 -6 -17 -8 -20 -4 -4 3 -7 1 -7 -5 0 -7 -4 -11 -8
-9 -9 2 -153 -64 -162 -74 -3 -4 -15 -9 -27 -13 -13 -4 -23 -12 -23 -17 0 -5
-4 -9 -10 -9 -10 0 -45 -27 -87 -67 -13 -12 -23 -19 -23 -16 0 3 -27 -22 -60
-55 -33 -34 -60 -66 -60 -72 0 -6 -4 -8 -10 -5 -5 3 -10 -1 -10 -9 0 -9 -7
-16 -16 -16 -8 0 -12 -4 -9 -10 3 -5 1 -10 -4 -10 -6 0 -11 -9 -11 -20 0 -11
-4 -20 -9 -20 -5 0 -16 -12 -26 -26 -12 -18 -13 -24 -4 -19 8 3 5 -1 -6 -10
-11 -9 -19 -18 -17 -21 1 -2 -5 -18 -13 -34 -9 -17 -12 -30 -8 -30 5 0 2 -4
-5 -9 -7 -4 -14 -27 -15 -49 -1 -23 -5 -42 -9 -42 -5 0 -7 -3 -7 -7 1 -5 0
-10 -1 -13 -1 -3 -3 -16 -5 -30 -2 -14 -6 -42 -10 -62 -5 -33 -4 -37 14 -35
12 1 21 6 21 12 0 6 15 19 33 30 17 10 37 26 44 34 7 9 13 13 13 9 0 -4 14 6
30 22 17 17 36 30 42 30 6 0 9 2 6 6 -3 3 21 32 54 65 33 32 57 59 54 59 -4 0
2 10 14 22 11 12 20 25 20 29 0 5 9 16 19 26 10 10 27 32 37 49 52 85 172 224
194 224 6 0 10 4 10 9 0 10 124 91 139 91 5 0 11 4 13 8 4 11 175 95 193 95 8
0 15 4 15 9 0 4 3 7 8 6 4 0 16 3 27 7 11 5 40 16 65 26 l45 18 -95 -1 c-52 0
-111 -4 -130 -8z"/>
<path d="M2461 3603 c-6 -10 -11 -14 -11 -10 0 5 -13 -1 -29 -12 -16 -12 -34
-21 -40 -21 -6 0 -11 -4 -11 -10 0 -5 -5 -10 -11 -10 -6 0 -17 -6 -24 -12 -8
-7 -26 -22 -40 -33 -55 -42 -165 -159 -165 -175 0 -5 -6 -15 -12 -22 -16 -16
-78 -140 -83 -165 -2 -10 -12 -39 -24 -65 -11 -27 -18 -48 -15 -48 2 0 0 -9
-6 -21 -7 -11 -14 -33 -16 -47 -3 -15 -10 -32 -16 -39 -6 -7 -7 -13 -3 -13 4
0 2 -7 -5 -15 -6 -8 -9 -19 -5 -25 3 -5 2 -10 -2 -10 -5 0 -15 -21 -23 -47 -7
-27 -22 -63 -32 -82 -11 -18 -17 -36 -14 -38 3 -3 -2 -12 -10 -20 -8 -8 -12
-18 -9 -23 3 -5 -3 -15 -13 -22 -11 -7 -19 -17 -20 -21 0 -5 -9 -20 -21 -33
-12 -13 -21 -28 -21 -32 0 -4 -9 -14 -19 -22 -11 -7 -18 -17 -15 -22 3 -4 -6
-13 -20 -20 -14 -6 -26 -18 -26 -25 0 -8 -4 -12 -9 -8 -5 3 -12 -4 -16 -15 -3
-11 -10 -20 -14 -20 -4 0 -16 -9 -28 -19 -11 -10 -34 -26 -51 -35 -18 -9 -32
-21 -32 -26 0 -6 -3 -9 -7 -8 -24 6 -72 -23 -73 -43 0 -10 68 7 85 21 11 9 15
10 15 1 0 -7 5 -9 11 -5 6 3 28 8 48 11 41 5 127 35 188 66 46 23 132 101 175
159 30 39 81 148 70 148 -4 0 -1 4 7 9 8 5 16 24 18 42 2 18 8 38 14 45 6 7
11 25 13 41 1 15 4 33 8 38 3 6 4 18 3 28 -2 9 1 15 6 11 5 -3 9 -2 10 3 0 4
3 18 5 31 2 12 5 30 7 40 2 9 6 23 11 30 4 6 4 12 0 12 -3 0 -2 6 4 13 5 6 13
28 17 47 4 19 12 46 18 60 6 14 11 27 11 30 2 10 38 94 51 120 7 14 13 29 13
33 0 5 11 27 26 49 14 22 26 46 26 54 0 8 4 14 8 14 4 0 15 12 24 28 25 41 88
102 163 157 19 14 18 14 -17 15 -25 0 -40 -6 -47 -17z"/>
<path d="M7476 3598 c16 -13 31 -26 32 -30 2 -5 7 -8 12 -8 5 0 25 -16 44 -35
20 -19 34 -35 32 -35 -3 0 8 -15 25 -32 16 -18 29 -38 29 -45 0 -7 5 -13 11
-13 5 0 7 -4 4 -10 -3 -5 -2 -10 4 -10 6 0 13 -11 17 -25 3 -14 10 -25 15 -25
5 0 9 -7 9 -15 0 -8 4 -23 9 -33 33 -64 84 -192 76 -192 -2 0 5 -21 16 -47 11
-25 18 -52 15 -59 -3 -8 -1 -16 5 -19 5 -4 7 -11 4 -16 -4 -5 -1 -9 5 -9 7 0
10 -6 7 -14 -3 -8 -3 -17 1 -21 4 -4 7 -10 8 -13 1 -14 16 -67 22 -82 3 -8 6
-19 7 -25 4 -31 38 -124 59 -161 14 -25 20 -42 15 -38 -6 3 6 -17 26 -46 43
-61 142 -160 161 -160 7 0 16 -5 19 -10 7 -11 68 -39 98 -45 9 -2 23 -7 30
-12 12 -8 18 -9 77 -17 55 -8 92 -16 109 -25 9 -5 25 -5 36 -1 17 6 12 11 -30
31 -27 13 -51 27 -53 31 -2 4 -9 8 -16 8 -7 0 -21 9 -31 20 -10 11 -22 20 -27
20 -4 0 -21 14 -36 31 -15 17 -35 38 -46 47 -21 19 -26 24 -61 68 -14 18 -25
37 -25 44 0 6 -4 8 -10 5 -5 -3 -10 -1 -10 5 0 7 -9 25 -21 41 -11 16 -22 35
-23 42 -2 7 -15 38 -30 70 -14 32 -26 61 -26 65 0 4 -7 19 -14 35 -10 17 -11
27 -4 27 7 0 5 7 -4 18 -11 13 -38 83 -43 112 0 3 -3 10 -6 15 -3 6 -12 31
-19 58 -7 26 -16 47 -19 47 -4 0 -7 10 -8 22 -2 20 -40 105 -53 118 -3 3 -6
12 -8 20 -2 8 -8 17 -13 18 -5 2 -9 10 -9 18 0 8 -5 14 -12 14 -6 0 -9 3 -6 6
5 5 -39 58 -93 113 -35 36 -113 96 -152 116 -47 25 -59 45 -28 45 12 0 21 -5
21 -12 0 -6 3 -8 7 -5 3 4 12 2 20 -4 7 -6 13 -9 13 -6 0 3 17 -1 38 -9 91
-37 132 -58 132 -67 0 -6 3 -8 6 -4 3 3 22 -4 42 -15 21 -12 57 -33 82 -47 25
-14 50 -30 57 -36 35 -29 43 -35 43 -31 0 2 24 -19 53 -48 49 -49 86 -94 142
-179 14 -21 35 -47 45 -57 11 -11 20 -26 20 -34 0 -7 49 -62 108 -122 109
-109 142 -139 142 -129 0 5 43 -31 76 -63 8 -7 14 -12 15 -10 7 33 8 53 1 62
-5 6 -9 27 -10 46 -1 19 -7 45 -14 58 -10 19 -9 25 1 31 10 6 10 10 2 12 -7 3
-13 11 -15 19 -1 8 -13 38 -26 65 -13 28 -22 53 -22 58 1 4 -3 7 -10 7 -6 0
-9 3 -5 6 3 4 1 12 -6 20 -28 32 -37 44 -32 44 16 0 -157 177 -215 220 -18 14
-38 30 -45 35 -15 14 -46 33 -75 47 -14 7 -27 15 -30 18 -8 9 -94 45 -99 42
-2 -2 -7 2 -12 10 -5 7 -12 13 -16 14 -32 3 -103 28 -103 36 0 5 -4 7 -9 3 -5
-3 -12 -1 -16 5 -4 6 -11 8 -16 4 -5 -3 -17 0 -25 7 -8 6 -17 9 -21 5 -3 -3
-17 1 -30 9 -13 9 -23 11 -23 5 0 -7 -6 -8 -19 0 -24 12 -202 14 -198 1 1 -5
-2 -8 -8 -7 -5 0 -9 5 -7 10 2 5 -5 3 -14 -5 -12 -9 -15 -9 -10 -1 5 9 -3 12
-30 12 l-37 0 29 -22z"/>
<path d="M2578 3553 c-85 -87 -98 -102 -98 -116 0 -8 -7 -18 -16 -21 -8 -3
-12 -10 -9 -16 3 -5 2 -10 -3 -10 -5 0 -15 -13 -22 -30 -7 -16 -16 -30 -21
-30 -5 0 -9 -7 -9 -15 0 -8 -5 -15 -11 -15 -5 0 -7 -5 -4 -10 3 -6 -1 -13 -9
-16 -9 -3 -14 -10 -11 -14 3 -5 -2 -16 -11 -24 -8 -9 -12 -16 -9 -16 4 0 0
-11 -9 -25 -9 -14 -14 -25 -11 -25 4 0 -3 -13 -15 -30 -12 -16 -30 -62 -41
-101 -11 -39 -26 -84 -34 -100 -9 -16 -15 -32 -14 -36 1 -4 0 -11 -1 -15 -1
-5 -4 -12 -5 -18 -1 -5 -3 -11 -5 -12 -1 -2 -3 -16 -5 -33 -2 -16 -7 -46 -10
-65 -13 -73 -15 -119 -15 -260 0 -80 4 -159 9 -175 4 -17 6 -36 4 -42 -3 -7 1
-29 7 -48 7 -20 13 -46 15 -58 2 -12 11 -47 20 -77 9 -30 17 -61 17 -67 1 -7
5 -13 8 -13 4 0 10 -18 14 -40 3 -22 11 -40 18 -40 6 0 9 -3 5 -6 -3 -4 3 -24
13 -45 11 -21 20 -46 20 -55 0 -9 9 -28 19 -43 11 -15 23 -39 26 -54 4 -14 13
-31 21 -38 8 -6 14 -18 14 -25 0 -8 4 -14 8 -14 5 0 9 -6 9 -12 0 -7 25 -65
55 -128 62 -128 65 -136 73 -199 3 -24 8 -47 10 -52 5 -7 6 -142 3 -191 -1 -9
-7 -19 -14 -22 -8 -3 -11 -12 -7 -22 4 -12 3 -15 -5 -10 -7 4 -12 2 -12 -3 0
-18 14 -12 50 22 43 40 75 78 90 106 6 12 15 19 21 16 5 -4 9 0 9 7 0 8 13 39
29 69 16 31 32 76 36 100 11 62 10 176 -2 191 -5 7 -10 25 -11 41 -1 15 -10
44 -21 65 -10 20 -20 42 -21 47 -4 23 -29 73 -39 79 -5 4 -8 13 -4 21 3 8 0
15 -5 15 -11 0 -25 22 -57 90 -9 19 -23 46 -31 60 -8 14 -26 49 -41 78 -14 28
-30 52 -35 52 -5 0 -7 8 -3 19 3 12 0 21 -10 25 -8 3 -14 11 -13 18 2 7 -3 12
-9 11 -7 -2 -14 6 -14 17 -2 36 -4 41 -14 48 -10 7 -15 22 -20 52 -1 8 -5 22
-8 30 -10 24 -39 142 -43 174 -2 16 -6 31 -8 34 -3 2 -1 13 5 24 5 10 6 24 2
31 -9 14 -13 158 -5 171 3 5 7 32 8 60 2 45 9 90 21 136 2 8 6 29 8 45 5 42 9
59 15 65 3 3 16 39 29 80 14 41 29 78 34 81 5 3 8 10 8 15 -1 5 3 23 9 39 6
17 11 32 11 35 0 3 7 12 15 21 8 9 11 19 7 22 -3 4 -1 7 5 7 7 0 12 10 12 22
0 12 6 29 14 37 8 9 16 23 18 31 2 8 10 22 18 30 8 8 16 22 18 30 2 8 19 36
38 62 l34 48 -28 0 c-19 0 -41 -14 -74 -47z"/>
<path d="M7350 3543 c22 -32 40 -64 40 -70 0 -7 5 -13 10 -13 6 0 10 -7 10
-15 0 -8 5 -15 11 -15 5 0 8 -4 4 -9 -3 -5 1 -15 8 -23 16 -16 39 -78 29 -78
-4 0 -1 -4 7 -9 8 -5 16 -16 17 -24 1 -8 14 -39 29 -68 15 -30 26 -56 26 -59
0 -3 5 -23 11 -45 6 -22 11 -43 10 -47 -1 -5 3 -8 10 -8 6 0 8 -3 5 -6 -3 -4
-1 -16 4 -27 6 -11 12 -29 14 -41 1 -11 5 -34 8 -51 13 -62 18 -92 23 -150 12
-117 7 -313 -7 -353 -5 -12 -11 -33 -13 -45 -15 -76 -40 -157 -48 -157 -5 0
-6 -4 -3 -10 3 -5 2 -10 -4 -10 -5 0 -8 -9 -6 -20 2 -11 -2 -23 -9 -27 -15 -9
-41 -54 -38 -66 1 -4 -3 -14 -10 -22 -29 -32 -39 -45 -34 -45 3 0 -4 -18 -15
-40 -12 -22 -24 -40 -28 -40 -4 0 -7 -10 -8 -21 -1 -12 -13 -38 -26 -58 -13
-20 -26 -44 -30 -53 -3 -10 -11 -18 -18 -18 -6 0 -9 -6 -6 -14 3 -8 -3 -22
-14 -32 -11 -10 -17 -24 -15 -31 3 -7 1 -13 -5 -13 -6 0 -8 -4 -4 -9 3 -5 1
-12 -5 -16 -6 -4 -8 -10 -5 -15 3 -5 -1 -15 -10 -23 -14 -15 -38 -97 -27 -97
3 0 -1 -8 -9 -17 -26 -33 -13 -211 19 -261 8 -12 11 -22 7 -22 -3 0 3 -13 14
-29 12 -16 21 -33 21 -37 0 -4 7 -14 15 -23 8 -9 26 -28 40 -44 14 -15 23 -27
20 -27 -9 0 78 -79 88 -80 4 0 7 5 7 10 0 6 -5 10 -11 10 -5 0 -8 4 -5 9 3 5
-1 14 -9 21 -8 7 -15 22 -15 34 1 11 1 50 0 86 0 36 2 72 5 80 2 8 6 37 9 63
3 26 10 57 16 67 6 11 8 20 6 20 -3 0 8 24 23 53 16 28 29 54 29 57 0 15 26
59 33 55 4 -3 6 2 5 12 -3 16 30 88 51 115 6 7 16 30 23 51 6 21 17 40 24 43
6 2 13 16 14 29 1 14 12 47 26 74 13 27 27 62 31 78 10 32 10 32 18 56 4 9 10
25 14 35 3 9 7 26 8 38 1 11 5 26 9 32 9 15 19 61 18 85 0 9 3 17 8 17 5 0 9
17 9 38 0 20 3 60 5 87 9 85 6 334 -3 355 -3 6 -7 36 -14 97 -3 23 -9 48 -13
55 -5 7 -7 21 -5 32 1 10 -2 22 -8 25 -6 4 -12 16 -14 26 -2 11 -9 33 -15 48
-7 15 -14 42 -17 60 -3 18 -15 44 -25 59 -11 15 -20 30 -20 34 0 15 -55 124
-63 124 -4 0 -5 5 -2 10 3 6 1 10 -4 10 -6 0 -11 7 -11 15 0 8 -4 15 -8 15 -5
0 -17 17 -28 38 -43 79 -49 87 -122 166 -19 20 -38 36 -43 36 -5 0 -9 7 -9 15
0 10 -11 15 -35 15 l-35 0 40 -57z"/>
<path d="M2683 3514 c3 -4 -7 -26 -24 -50 -16 -24 -27 -44 -23 -44 3 0 1 -6
-5 -13 -6 -8 -8 -17 -4 -20 3 -4 2 -7 -4 -7 -9 0 -16 -12 -27 -50 -1 -3 -5
-11 -9 -17 -5 -7 -6 -13 -2 -13 3 0 -1 -13 -9 -29 -9 -16 -12 -32 -8 -35 3 -4
1 -10 -5 -14 -7 -4 -15 -23 -18 -42 -3 -19 -9 -37 -13 -40 -4 -3 -8 -9 -9 -15
-4 -27 -23 -123 -28 -145 -15 -60 -22 -259 -10 -264 5 -3 4 -5 -3 -5 -7 -1
-10 -6 -6 -12 7 -12 13 -53 15 -112 1 -20 4 -39 8 -41 4 -3 8 -21 9 -41 2 -20
10 -48 19 -61 8 -13 12 -24 8 -24 -4 0 -2 -7 5 -15 7 -8 10 -15 7 -15 -3 0 7
-26 23 -58 34 -68 110 -173 142 -195 13 -9 46 -37 73 -61 53 -49 69 -55 79
-31 3 8 2 15 -2 15 -4 0 -8 15 -10 33 -3 50 -11 98 -21 142 -5 22 -14 63 -20
92 -5 29 -17 68 -25 88 -8 19 -15 38 -15 40 -1 3 -7 15 -16 28 -8 12 -16 32
-18 44 -1 12 -8 27 -13 35 -13 16 -41 77 -46 98 -2 8 -7 18 -11 21 -5 4 -10
18 -10 33 -1 14 -6 26 -10 26 -5 0 -6 4 -2 9 3 5 2 12 -3 15 -8 5 -15 48 -16
104 0 17 -3 32 -6 32 -8 0 -4 149 4 157 3 3 1 12 -5 20 -6 7 -7 13 -2 13 5 0
9 16 8 35 -1 20 2 38 7 41 4 3 5 10 2 16 -4 6 0 14 7 19 9 6 10 9 2 9 -7 0
-10 9 -7 23 2 12 7 38 9 57 17 111 27 150 36 150 5 0 8 3 8 8 -1 4 0 9 1 12 9
24 9 60 -1 60 -7 0 -10 -3 -6 -6z"/>
<path d="M7290 3508 c0 -9 7 -31 15 -51 8 -19 11 -37 8 -41 -4 -3 -2 -6 4 -6
5 0 10 -6 11 -12 0 -7 3 -29 7 -48 13 -78 17 -107 20 -140 1 -19 3 -35 5 -35
5 0 10 -86 10 -185 1 -124 -7 -201 -23 -227 -5 -7 -5 -17 -2 -23 3 -5 1 -10
-5 -10 -6 0 -9 -4 -6 -8 3 -5 -1 -20 -9 -35 -7 -14 -11 -28 -7 -31 3 -3 0 -6
-6 -6 -7 0 -12 -6 -12 -12 0 -13 -33 -88 -72 -161 -10 -21 -21 -46 -24 -55 -2
-9 -10 -40 -18 -69 -8 -29 -17 -65 -19 -80 -3 -15 -8 -39 -11 -53 -6 -27 -12
-67 -22 -142 -5 -40 -3 -48 10 -48 9 0 16 5 16 10 0 6 7 10 15 10 8 0 15 4 15
9 0 5 16 19 35 32 19 13 35 29 35 35 0 7 8 14 18 16 34 9 159 195 169 250 6
37 8 43 17 49 8 6 12 22 21 84 1 11 5 27 8 35 3 8 6 22 6 30 3 41 9 95 10 95
4 0 2 143 -3 210 -3 39 -10 85 -15 104 -6 19 -9 37 -6 39 3 3 0 11 -6 19 -6 7
-9 13 -6 13 3 0 1 15 -5 33 -5 17 -11 39 -12 47 -1 8 -7 25 -14 36 -6 12 -8
24 -5 28 3 3 1 6 -6 6 -7 0 -9 5 -6 10 3 6 3 16 -2 23 -4 6 -8 17 -9 22 -1 6
-9 27 -18 48 -9 20 -13 37 -9 37 5 0 3 4 -2 8 -6 4 -21 30 -35 57 -31 63 -60
103 -60 83z"/>
</g>
</svg>
